<svg version="1.1" id="Layer_1" xmlns="http://www.w3.org/2000/svg" xmlns:xlink="http://www.w3.org/1999/xlink" x="0px" y="0px"
	 width="100%" viewBox="0 0 128 128" enable-background="new 0 0 128 128" xml:space="preserve">
<path fill="#000000" opacity="1.000000" stroke="none" 
	d="
M74.000000,129.000000 
	C49.333332,129.000000 25.166666,129.000000 1.000000,129.000000 
	C1.000000,86.333336 1.000000,43.666668 1.000000,1.000000 
	C43.666668,1.000000 86.333336,1.000000 129.000000,1.000000 
	C129.000000,43.666668 129.000000,86.333336 129.000000,129.000000 
	C110.833336,129.000000 92.666664,129.000000 74.000000,129.000000 
M7.025891,60.866528 
	C7.072766,62.912453 7.119640,64.958374 7.027431,67.884018 
	C7.074185,70.256851 7.120939,72.629692 7.028617,75.781921 
	C7.408363,77.521866 7.788109,79.261803 8.234291,81.701118 
	C9.119102,83.481400 10.003914,85.261688 11.163632,87.665543 
	C12.758037,89.477516 14.352441,91.289490 16.210960,93.723831 
	C18.456083,95.184326 20.701206,96.644821 23.311546,98.771057 
	C32.787334,102.055496 42.117081,102.904938 51.735504,97.002220 
	C53.841499,95.036118 55.947498,93.070015 58.684322,90.833115 
	C60.067623,88.555222 61.450924,86.277336 63.160637,83.331589 
	C63.973053,81.298111 64.785469,79.264641 65.637627,77.131691 
	C53.722748,76.712753 53.722748,76.712753 49.327015,81.172356 
	C47.869213,82.748116 46.411415,84.323875 44.169655,86.011063 
	C38.982056,89.177116 33.546066,88.104408 27.843035,86.333954 
	C26.504604,85.226433 25.166172,84.118912 23.783396,82.330544 
	C21.524946,80.170982 19.266497,78.011421 16.977194,75.543121 
	C16.977194,75.543121 16.939123,75.234116 17.651842,74.859024 
	C19.941875,74.239578 22.225443,73.113503 24.523010,73.084183 
	C37.886444,72.913589 51.253166,73.000687 65.669701,73.000687 
	C64.551453,70.245079 63.690605,68.123756 62.966736,65.506889 
	C62.922951,65.341202 62.879162,65.175522 63.256020,64.302956 
	C63.781498,61.200104 64.306976,58.097248 64.960144,54.237106 
	C63.653767,51.119572 62.347393,48.002037 60.775074,44.267078 
	C58.887794,42.164570 57.000511,40.062061 54.816143,37.320236 
	C53.514412,36.355743 52.253681,35.329250 50.904232,34.436920 
	C42.707481,29.016754 24.865458,29.403605 17.333872,37.171291 
	C15.184415,39.768089 13.034958,42.364887 10.264805,45.294342 
	C9.233970,47.872459 8.203134,50.450581 7.029139,53.889004 
	C7.075412,55.925880 7.121686,57.962757 7.025891,60.866528 
M79.662857,89.842972 
	C80.789459,88.263840 81.916061,86.684708 83.683983,84.826111 
	C85.160271,82.900131 86.636551,80.974152 87.825897,78.524582 
	C87.659691,78.634041 87.493477,78.743507 87.761169,79.283554 
	C88.123291,78.861023 88.485420,78.438492 89.146133,77.393753 
	C90.414520,78.297653 91.682899,79.201546 93.211685,80.720734 
	C94.769012,82.492821 96.326340,84.264900 98.000038,86.733040 
	C99.630234,88.836174 101.260429,90.939308 103.188629,93.695648 
	C108.091614,102.139938 115.966972,98.029518 124.154625,99.204498 
	C121.482147,96.008957 119.762901,93.953224 117.791496,91.273575 
	C116.210396,89.482712 114.629288,87.691849 112.998314,85.212425 
	C111.702240,83.460251 110.406158,81.708076 108.841812,79.333969 
	C107.243889,77.520470 105.645966,75.706970 103.998840,73.201378 
	C102.367821,71.117569 100.736794,69.033760 98.881020,66.377480 
	C99.600098,64.955620 100.319168,63.533768 101.657852,61.795731 
	C103.715645,58.864525 105.773438,55.933319 108.128654,52.381699 
	C110.125381,49.933491 112.122108,47.485287 114.695061,44.764263 
	C115.477638,43.547073 116.260216,42.329884 117.662872,40.792622 
	C119.306602,38.317749 120.950325,35.842876 122.838142,33.000492 
	C119.267906,33.000492 116.286217,33.213852 113.346497,32.953423 
	C108.178291,32.495571 104.584961,34.604851 101.867203,39.639217 
	C100.561546,41.392166 99.255890,43.145111 97.333069,45.173500 
	C95.875214,47.078831 94.417358,48.984158 92.345230,51.204739 
	C91.155251,55.343918 89.132889,53.668491 87.004242,51.270275 
	C85.613380,49.514214 84.222519,47.758156 82.779037,45.330795 
	C81.125107,43.237190 79.471176,41.143585 77.775612,38.362473 
	C72.563805,30.616632 64.760048,33.451424 56.717442,33.025204 
	C58.834442,35.488941 60.361752,37.266403 61.995869,39.735218 
	C63.314468,41.525471 64.633064,43.315720 66.211121,45.711300 
	C67.457642,47.175694 68.704163,48.640087 70.206551,50.705231 
	C71.433380,52.149948 72.660210,53.594669 74.171173,55.670269 
	C75.765511,57.815998 77.359856,59.961731 79.237244,62.739296 
	C79.787415,64.145508 80.337585,65.551720 80.284302,67.215248 
	C79.175224,68.774811 78.066147,70.334373 76.338028,72.205437 
	C74.544800,74.765717 72.751564,77.325989 70.336174,80.194603 
	C68.854248,82.448395 67.372314,84.702194 65.278427,87.216660 
	C63.818123,89.128555 62.357811,91.040459 60.265640,93.269592 
	C59.159946,94.936981 58.054253,96.604362 56.167053,99.450256 
	C63.215103,97.867752 69.738190,101.491173 75.640388,95.749176 
	C76.776436,93.866402 77.912483,91.983627 79.662857,89.842972 
z"/>
<path fill="#ACB8FF" opacity="1.000000" stroke="none" 
	d="
M62.835369,65.009834 
	C62.879162,65.175522 62.922951,65.341202 62.586143,65.949341 
	C60.262619,67.261330 58.333424,68.845924 56.374512,68.883553 
	C44.265087,69.116180 32.148697,68.961342 20.035381,69.045074 
	C18.309649,69.057007 16.588036,69.664864 14.492061,69.998817 
	C13.125244,70.000145 12.130884,69.999573 11.089617,69.624893 
	C10.982152,68.499504 10.921595,67.748215 10.913809,66.624725 
	C11.029024,65.504669 11.091468,64.756836 11.522760,64.006821 
	C12.876501,64.006409 13.861393,64.008163 15.151361,64.315231 
	C28.392006,64.741699 41.327602,64.905540 54.263084,64.897148 
	C55.223930,64.896530 56.183975,63.659416 57.515388,62.994732 
	C58.875889,62.983902 59.865391,62.975475 60.982346,63.228413 
	C61.684986,63.996464 62.260178,64.503151 62.835369,65.009834 
z"/>
<path fill="#7D42FF" opacity="1.000000" stroke="none" 
	d="
M14.864517,69.996918 
	C16.588036,69.664864 18.309649,69.057007 20.035381,69.045074 
	C32.148697,68.961342 44.265087,69.116180 56.374512,68.883553 
	C58.333424,68.845924 60.262619,67.261330 62.517654,66.197113 
	C63.690605,68.123756 64.551453,70.245079 65.669701,73.000687 
	C51.253166,73.000687 37.886444,72.913589 24.523010,73.084183 
	C22.225443,73.113503 19.941875,74.239578 16.936840,74.912567 
	C15.769399,73.309715 15.316957,71.653313 14.864517,69.996918 
z"/>
<path fill="#246AFF" opacity="1.000000" stroke="none" 
	d="
M17.949697,36.897594 
	C24.865458,29.403605 42.707481,29.016754 50.904232,34.436920 
	C52.253681,35.329250 53.514412,36.355743 54.629009,37.690437 
	C53.293129,38.710480 52.144382,39.360317 50.671875,39.873283 
	C41.071800,33.417652 31.624037,33.891972 21.720657,38.971680 
	C20.238270,38.246483 19.093985,37.572037 17.949697,36.897594 
z"/>
<path fill="#C127FF" opacity="1.000000" stroke="none" 
	d="
M51.048172,97.107498 
	C42.117081,102.904938 32.787334,102.055496 23.291319,98.137794 
	C23.883604,96.549911 24.496119,95.595291 25.492384,94.753387 
	C32.807972,97.831108 39.733353,97.258430 46.985344,94.976486 
	C48.559616,95.785683 49.803894,96.446587 51.048172,97.107498 
z"/>
<path fill="#AD31FF" opacity="1.000000" stroke="none" 
	d="
M28.105434,86.952408 
	C33.546066,88.104408 38.982056,89.177116 44.712708,86.231964 
	C46.170349,87.296188 47.084934,88.139519 47.768764,89.248840 
	C39.969437,94.053772 32.407398,94.687920 25.034855,89.177856 
	C26.178196,88.236671 27.141813,87.594536 28.105434,86.952408 
z"/>
<path fill="#C127FF" opacity="1.000000" stroke="none" 
	d="
M118.043655,91.897491 
	C119.762901,93.953224 121.482147,96.008957 124.154625,99.204498 
	C115.966972,98.029518 108.091614,102.139938 103.386200,93.216888 
	C104.804680,92.463448 106.025589,92.188751 107.520737,92.097931 
	C111.819305,95.388428 112.258026,95.447144 114.140305,93.061035 
	C115.700027,92.661156 116.871841,92.279320 118.043655,91.897491 
z"/>
<path fill="#226AFF" opacity="1.000000" stroke="none" 
	d="
M102.182762,39.051914 
	C104.584961,34.604851 108.178291,32.495571 113.346497,32.953423 
	C116.286217,33.213852 119.267906,33.000492 122.838142,33.000492 
	C120.950325,35.842876 119.306602,38.317749 117.280762,40.628338 
	C115.904785,39.638672 114.910919,38.813293 113.735626,37.706024 
	C111.316055,38.279999 109.077911,39.135872 106.497101,39.982544 
	C104.830544,39.666203 103.506653,39.359058 102.182762,39.051914 
z"/>
<path fill="#226AFF" opacity="1.000000" stroke="none" 
	d="
M61.889061,39.043865 
	C60.361752,37.266403 58.834442,35.488941 56.717442,33.025204 
	C64.760048,33.451424 72.563805,30.616632 77.442841,38.707691 
	C75.739388,39.370739 74.368706,39.688568 72.708382,39.828514 
	C70.306847,39.096558 68.194954,38.542480 65.748352,38.131863 
	C64.238785,38.531502 63.063923,38.787682 61.889061,39.043865 
z"/>
<path fill="#5958FF" opacity="1.000000" stroke="none" 
	d="
M87.105064,51.954884 
	C89.132889,53.668491 91.155251,55.343918 92.745026,51.388290 
	C94.382973,52.047729 95.621117,52.523617 96.781425,53.313091 
	C95.444260,55.403877 94.184937,57.181076 92.656906,59.144691 
	C91.282669,61.172974 90.274376,62.782665 87.950958,60.427528 
	C86.843300,59.304749 85.163773,58.746151 83.596138,57.825249 
	C83.267136,57.552834 83.124695,57.358299 83.143341,56.837822 
	C83.143723,55.369450 83.022438,54.198162 83.267105,53.011848 
	C84.790390,52.649513 85.947723,52.302197 87.105064,51.954884 
z"/>
<path fill="#C127FF" opacity="1.000000" stroke="none" 
	d="
M75.038071,96.067726 
	C69.738190,101.491173 63.215103,97.867752 56.167053,99.450256 
	C58.054253,96.604362 59.159946,94.936981 60.907120,93.256821 
	C62.936665,93.496346 64.324738,93.748634 65.942589,94.272507 
	C68.098175,93.973175 70.023979,93.402260 72.167313,93.086533 
	C73.269257,94.250389 74.153664,95.159058 75.038071,96.067726 
z"/>
<path fill="#9439FF" opacity="1.000000" stroke="none" 
	d="
M49.954048,80.894348 
	C53.722748,76.712753 53.722748,76.712753 65.637627,77.131691 
	C64.785469,79.264641 63.973053,81.298111 62.636578,83.597122 
	C60.934181,83.536102 59.755844,83.209541 58.625427,82.566177 
	C57.076267,82.494705 55.479191,82.740028 53.538681,82.977753 
	C52.114845,82.278214 51.034447,81.586281 49.954048,80.894348 
z"/>
<path fill="#8B41FF" opacity="1.000000" stroke="none" 
	d="
M87.327271,78.852966 
	C87.493477,78.743507 87.659691,78.634041 87.588989,78.515236 
	C86.236816,78.009270 85.121552,77.512657 84.097656,76.749344 
	C84.464333,75.994476 84.739639,75.506302 85.275497,74.817413 
	C86.923721,72.869316 88.311409,71.121925 89.911362,69.107246 
	C91.844025,71.355125 93.416191,73.183708 95.106506,75.283386 
	C95.749069,76.374275 96.273483,77.194084 96.479469,78.067238 
	C95.091125,78.782204 94.021202,79.443825 92.951286,80.105446 
	C91.682899,79.201546 90.414520,78.297653 88.577805,77.843315 
	C87.782082,78.479576 87.554680,78.666267 87.327271,78.852966 
z"/>
<path fill="#3663FF" opacity="1.000000" stroke="none" 
	d="
M50.995636,40.010155 
	C52.144382,39.360317 53.293129,38.710480 54.777554,38.010094 
	C57.000511,40.062061 58.887794,42.164570 60.714241,44.829498 
	C59.760902,46.284653 58.868393,47.177395 57.757462,47.922806 
	C57.300419,47.517597 57.061802,47.259724 56.709160,46.699478 
	C54.728638,44.268124 52.862137,42.139137 50.995636,40.010155 
z"/>
<path fill="#3663FF" opacity="1.000000" stroke="none" 
	d="
M17.641785,37.034443 
	C19.093985,37.572037 20.238270,38.246483 21.540068,39.252029 
	C19.697565,41.875252 17.697550,44.167377 15.431320,46.592987 
	C14.822704,46.929775 14.480303,47.133076 13.945949,47.055603 
	C12.797832,46.170448 11.841667,45.566067 10.885502,44.961685 
	C13.034958,42.364887 15.184415,39.768089 17.641785,37.034443 
z"/>
<path fill="#5C54FF" opacity="1.000000" stroke="none" 
	d="
M107.831238,53.002113 
	C105.773438,55.933319 103.715645,58.864525 101.173416,61.651531 
	C99.454117,61.008053 98.219261,60.508778 97.012863,59.762665 
	C97.041306,59.515831 97.123566,59.026093 97.393890,58.861813 
	C98.785828,57.150795 99.907440,55.604057 101.288940,53.891163 
	C102.358215,52.808792 103.167595,51.892574 104.181915,51.218452 
	C105.534973,51.974407 106.683105,52.488262 107.831238,53.002113 
z"/>
<path fill="#913DFF" opacity="1.000000" stroke="none" 
	d="
M70.958328,79.886261 
	C72.751564,77.325989 74.544800,74.765717 76.796478,72.454559 
	C78.164207,73.362877 79.073486,74.022087 79.816727,74.968582 
	C78.661980,76.977921 77.673264,78.699951 76.452057,80.635223 
	C75.484871,81.585472 74.750175,82.322472 73.861885,82.778931 
	C72.791634,81.627678 71.874977,80.756966 70.958328,79.886261 
z"/>
<path fill="#B52CFF" opacity="1.000000" stroke="none" 
	d="
M51.391838,97.054855 
	C49.803894,96.446587 48.559616,95.785683 47.221779,94.726730 
	C49.645092,92.516495 52.161968,90.704308 54.994514,89.024719 
	C56.224625,89.806183 57.139061,90.455048 58.053497,91.103912 
	C55.947498,93.070015 53.841499,95.036118 51.391838,97.054855 
z"/>
<path fill="#405DFF" opacity="1.000000" stroke="none" 
	d="
M107.979950,52.691910 
	C106.683105,52.488262 105.534973,51.974407 104.292519,50.945229 
	C104.550323,49.739094 104.902451,49.048279 105.504189,48.149254 
	C106.903175,46.628624 108.052559,45.316212 109.555084,44.070549 
	C111.311775,44.437229 112.715302,44.737156 114.118835,45.037083 
	C112.122108,47.485287 110.125381,49.933491 107.979950,52.691910 
z"/>
<path fill="#5C54FF" opacity="1.000000" stroke="none" 
	d="
M83.021675,57.134899 
	C83.124695,57.358299 83.267136,57.552834 83.637405,58.209591 
	C83.796883,59.470135 83.767952,60.239594 83.368484,61.006241 
	C81.650017,61.371441 80.302109,61.739452 78.954193,62.107460 
	C77.359856,59.961731 75.765511,57.815998 74.402451,55.335442 
	C75.817772,54.648518 77.001808,54.296421 78.451477,54.117104 
	C80.151962,55.238220 81.586815,56.186562 83.021675,57.134899 
z"/>
<path fill="#6D4BFF" opacity="1.000000" stroke="none" 
	d="
M96.984406,60.009495 
	C98.219261,60.508778 99.454117,61.008053 100.863609,61.809624 
	C100.319168,63.533768 99.600098,64.955620 98.667076,66.818901 
	C97.544159,68.011772 96.635185,68.763222 95.494804,69.274536 
	C94.423264,68.022697 93.583138,67.010986 92.840607,65.665802 
	C94.286942,63.558048 95.635674,61.783768 96.984406,60.009495 
z"/>
<path fill="#4C59FF" opacity="1.000000" stroke="none" 
	d="
M57.975883,48.070133 
	C58.868393,47.177395 59.760902,46.284653 60.847214,45.138206 
	C62.347393,48.002037 63.653767,51.119572 64.458504,54.618706 
	C62.791622,55.062130 61.626377,55.123955 60.346817,54.998932 
	C60.104584,54.546413 59.984802,54.277126 59.863342,53.655117 
	C59.227646,51.560722 58.601765,49.815426 57.975883,48.070133 
z"/>
<path fill="#3663FF" opacity="1.000000" stroke="none" 
	d="
M72.998016,40.006397 
	C74.368706,39.688568 75.739388,39.370739 77.463661,39.051445 
	C79.471176,41.143585 81.125107,43.237190 82.469864,45.676640 
	C80.866699,46.335960 79.572701,46.649433 78.020767,46.846729 
	C77.591881,46.652519 77.420921,46.574486 77.146210,46.190701 
	C75.694313,43.925434 74.346161,41.965916 72.998016,40.006397 
z"/>
<path fill="#AD31FF" opacity="1.000000" stroke="none" 
	d="
M107.246490,91.914055 
	C106.025589,92.188751 104.804680,92.463448 103.237198,92.890289 
	C101.260429,90.939308 99.630234,88.836174 98.298195,86.329697 
	C99.753166,85.615639 100.909973,85.304916 102.344017,85.167999 
	C104.162994,87.532547 105.704742,89.723305 107.246490,91.914055 
z"/>
<path fill="#7D42FF" opacity="1.000000" stroke="none" 
	d="
M95.726219,69.514671 
	C96.635185,68.763222 97.544159,68.011772 98.779449,67.105133 
	C100.736794,69.033760 102.367821,71.117569 103.756828,73.803185 
	C102.307076,74.617264 101.099327,74.829536 99.639999,74.895630 
	C98.863670,74.171898 98.338936,73.594345 97.712311,72.735413 
	C96.982353,71.474243 96.354286,70.494453 95.726219,69.514671 
z"/>
<path fill="#9C36FF" opacity="1.000000" stroke="none" 
	d="
M102.066788,84.994194 
	C100.909973,85.304916 99.753166,85.615639 98.240013,85.981674 
	C96.326340,84.264900 94.769012,82.492821 93.081482,80.413086 
	C94.021202,79.443825 95.091125,78.782204 96.700638,78.317017 
	C98.514572,79.998985 99.788902,81.484520 101.155449,83.238510 
	C101.520706,84.002708 101.793747,84.498451 102.066788,84.994194 
z"/>
<path fill="#3663FF" opacity="1.000000" stroke="none" 
	d="
M102.024979,39.345566 
	C103.506653,39.359058 104.830544,39.666203 106.420197,40.288605 
	C105.704391,42.219948 104.722809,43.836029 103.479507,45.587013 
	C102.598648,46.196228 101.979523,46.670551 101.042648,47.007160 
	C99.800011,46.212315 98.875114,45.555183 97.950226,44.898056 
	C99.255890,43.145111 100.561546,41.392166 102.024979,39.345566 
z"/>
<path fill="#4C59FF" opacity="1.000000" stroke="none" 
	d="
M10.575153,45.128014 
	C11.841667,45.566067 12.797832,46.170448 13.873249,47.387497 
	C13.256758,49.996220 12.521012,51.992271 11.445652,53.979214 
	C9.794790,53.656303 8.483544,53.342503 7.172298,53.028702 
	C8.203134,50.450581 9.233970,47.872459 10.575153,45.128014 
z"/>
<path fill="#A233FF" opacity="1.000000" stroke="none" 
	d="
M70.647247,80.040436 
	C71.874977,80.756966 72.791634,81.627678 73.731720,83.078934 
	C72.208580,85.526848 70.661995,87.394211 68.920486,88.990005 
	C67.780510,88.130959 66.835449,87.543472 65.890388,86.955986 
	C67.372314,84.702194 68.854248,82.448395 70.647247,80.040436 
z"/>
<path fill="#7D42FF" opacity="1.000000" stroke="none" 
	d="
M79.982758,74.681290 
	C79.073486,74.022087 78.164207,73.362877 77.106003,72.298813 
	C78.066147,70.334373 79.175224,68.774811 80.972702,67.109375 
	C82.887024,67.375252 84.112938,67.747009 85.210510,68.422844 
	C84.121117,70.157707 83.160088,71.588486 81.991760,73.217163 
	C81.183884,73.837135 80.583321,74.259209 79.982758,74.681290 
z"/>
<path fill="#B52CFF" opacity="1.000000" stroke="none" 
	d="
M25.108631,94.640671 
	C24.496119,95.595291 23.883604,96.549911 23.108709,97.804916 
	C20.701206,96.644821 18.456083,95.184326 16.312119,93.164452 
	C17.314220,91.950172 18.215164,91.295273 19.424873,90.783707 
	C21.525301,92.164909 23.316965,93.402794 25.108631,94.640671 
z"/>
<path fill="#465CFF" opacity="1.000000" stroke="none" 
	d="
M97.641647,45.035774 
	C98.875114,45.555183 99.800011,46.212315 100.913216,47.312332 
	C100.072029,49.171886 99.042519,50.588562 97.767311,52.099144 
	C97.300835,52.461876 97.080055,52.730694 96.859268,52.999504 
	C95.621117,52.523617 94.382973,52.047729 93.052170,51.230659 
	C94.417358,48.984158 95.875214,47.078831 97.641647,45.035774 
z"/>
<path fill="#6D4BFF" opacity="1.000000" stroke="none" 
	d="
M85.338860,68.118759 
	C84.112938,67.747009 82.887024,67.375252 81.274429,66.980713 
	C80.337585,65.551720 79.787415,64.145508 79.095718,62.423378 
	C80.302109,61.739452 81.650017,61.371441 83.572960,61.284458 
	C85.184479,63.043560 86.220963,64.521637 87.096489,66.241379 
	C86.403305,67.028282 85.871078,67.573517 85.338860,68.118759 
z"/>
<path fill="#A233FF" opacity="1.000000" stroke="none" 
	d="
M58.368912,90.968513 
	C57.139061,90.455048 56.224625,89.806183 55.133789,88.716179 
	C56.164093,86.477684 57.370800,84.680328 58.577507,82.882980 
	C59.755844,83.209541 60.934181,83.536102 62.473373,83.931061 
	C61.450924,86.277336 60.067623,88.555222 58.368912,90.968513 
z"/>
<path fill="#5C54FF" opacity="1.000000" stroke="none" 
	d="
M60.461136,55.185780 
	C61.626377,55.123955 62.791622,55.062130 64.394661,54.997353 
	C64.306976,58.097248 63.781498,61.200104 63.045692,64.656395 
	C62.260178,64.503151 61.684986,63.996464 61.035728,62.796177 
	C60.794819,59.796974 60.627979,57.491379 60.461136,55.185780 
z"/>
<path fill="#B52CFF" opacity="1.000000" stroke="none" 
	d="
M117.917572,91.585533 
	C116.871841,92.279320 115.700027,92.661156 113.879562,92.880135 
	C111.817558,90.816200 110.404198,88.915115 109.359818,87.011017 
	C110.835266,86.639000 111.941727,86.269997 113.048187,85.900986 
	C114.629288,87.691849 116.210396,89.482712 117.917572,91.585533 
z"/>
<path fill="#A233FF" opacity="1.000000" stroke="none" 
	d="
M113.023254,85.556709 
	C111.941727,86.269997 110.835266,86.639000 109.100067,86.818085 
	C107.325760,85.047279 106.180183,83.466385 105.263535,81.652878 
	C106.698334,80.932144 107.904205,80.444023 109.110085,79.955902 
	C110.406158,81.708076 111.702240,83.460251 113.023254,85.556709 
z"/>
<path fill="#913DFF" opacity="1.000000" stroke="none" 
	d="
M108.975952,79.644936 
	C107.904205,80.444023 106.698334,80.932144 105.020706,81.506927 
	C104.138992,81.201462 103.729012,80.809341 103.190277,80.142746 
	C102.004875,78.259445 100.948227,76.650635 99.891586,75.041817 
	C101.099327,74.829536 102.307076,74.617264 103.781433,74.149231 
	C105.645966,75.706970 107.243889,77.520470 108.975952,79.644936 
z"/>
<path fill="#465CFF" opacity="1.000000" stroke="none" 
	d="
M78.278702,46.962906 
	C79.572701,46.649433 80.866699,46.335960 82.496178,46.012291 
	C84.222519,47.758156 85.613380,49.514214 87.054657,51.612579 
	C85.947723,52.302197 84.790390,52.649513 83.009415,52.821053 
	C81.016747,50.751148 79.647728,48.857029 78.278702,46.962906 
z"/>
<path fill="#A233FF" opacity="1.000000" stroke="none" 
	d="
M49.640533,81.033356 
	C51.034447,81.586281 52.114845,82.278214 53.414314,83.276680 
	C51.755424,85.383087 49.877472,87.182968 47.999519,88.982841 
	C47.084934,88.139519 46.170349,87.296188 45.104691,86.176247 
	C46.411415,84.323875 47.869213,82.748116 49.640533,81.033356 
z"/>
<path fill="#B52CFF" opacity="1.000000" stroke="none" 
	d="
M65.584412,87.086319 
	C66.835449,87.543472 67.780510,88.130959 68.833649,89.295235 
	C67.865417,91.248322 66.789108,92.624626 65.712807,94.000931 
	C64.324738,93.748634 62.936665,93.496346 61.223049,93.098206 
	C62.357811,91.040459 63.818123,89.128555 65.584412,87.086319 
z"/>
<path fill="#3065FF" opacity="1.000000" stroke="none" 
	d="
M114.406952,44.900673 
	C112.715302,44.737156 111.311775,44.437229 109.669357,43.773773 
	C110.926010,41.602802 112.421532,39.795357 113.917053,37.987915 
	C114.910919,38.813293 115.904785,39.638672 116.970718,40.788376 
	C116.260216,42.329884 115.477638,43.547073 114.406952,44.900673 
z"/>
<path fill="#9C36FF" opacity="1.000000" stroke="none" 
	d="
M84.006287,77.016045 
	C85.121552,77.512657 86.236816,78.009270 87.732452,78.777023 
	C86.636551,80.974152 85.160271,82.900131 83.147850,84.703659 
	C81.629745,84.018829 80.647781,83.456467 79.797867,82.578949 
	C81.288719,80.514542 82.647499,78.765297 84.006287,77.016045 
z"/>
<path fill="#4C59FF" opacity="1.000000" stroke="none" 
	d="
M78.185844,53.944324 
	C77.001808,54.296421 75.817772,54.648518 74.260391,55.020000 
	C72.660210,53.594669 71.433380,52.149948 70.280350,50.152058 
	C71.518669,49.065830 72.683189,48.532780 74.032722,48.173424 
	C74.490135,48.543400 74.762527,48.739677 75.163162,49.238152 
	C76.256218,51.008343 77.221031,52.476334 78.185844,53.944324 
z"/>
<path fill="#AD31FF" opacity="1.000000" stroke="none" 
	d="
M19.116106,90.640373 
	C18.215164,91.295273 17.314220,91.950172 16.180061,92.853271 
	C14.352441,91.289490 12.758037,89.477516 11.395897,87.291870 
	C12.831964,86.591827 14.035764,86.265465 15.493757,86.111923 
	C16.870668,87.736626 17.993385,89.188499 19.116106,90.640373 
z"/>
<path fill="#9439FF" opacity="1.000000" stroke="none" 
	d="
M17.008049,75.851868 
	C19.266497,78.011421 21.524946,80.170982 23.407791,82.675461 
	C21.912966,83.558388 20.793743,84.096390 19.472511,84.414505 
	C18.843372,83.792961 18.416243,83.391312 17.889915,82.649628 
	C17.126791,80.507095 16.462864,78.704597 16.044409,76.783958 
	C16.529268,76.394508 16.768658,76.123184 17.008049,75.851868 
z"/>
<path fill="#7D42FF" opacity="1.000000" stroke="none" 
	d="
M10.861037,66.996933 
	C10.921595,67.748215 10.982152,68.499504 11.037880,70.038452 
	C11.029522,72.215332 11.025994,73.604538 10.636720,74.995422 
	C9.223213,74.998901 8.195454,75.000717 7.167694,75.002533 
	C7.120939,72.629692 7.074185,70.256851 7.468536,67.442734 
	C8.893440,66.999939 9.877239,66.998436 10.861037,66.996933 
z"/>
<path fill="#A233FF" opacity="1.000000" stroke="none" 
	d="
M19.674519,84.634384 
	C20.793743,84.096390 21.912966,83.558388 23.429966,83.015884 
	C25.166172,84.118912 26.504604,85.226433 27.974234,86.643181 
	C27.141813,87.594536 26.178196,88.236671 24.724070,89.027985 
	C22.713879,87.662910 21.194199,86.148651 19.674519,84.634384 
z"/>
<path fill="#405DFF" opacity="1.000000" stroke="none" 
	d="
M73.847710,47.999725 
	C72.683189,48.532780 71.518669,49.065830 70.152420,49.851685 
	C68.704163,48.640087 67.457642,47.175694 66.291336,45.149918 
	C67.579613,44.061111 68.787674,43.533684 70.244492,43.204239 
	C71.611404,44.934719 72.729561,46.467220 73.847710,47.999725 
z"/>
<path fill="#AD31FF" opacity="1.000000" stroke="none" 
	d="
M79.665810,82.894096 
	C80.647781,83.456467 81.629745,84.018829 82.827194,84.843384 
	C81.916061,86.684708 80.789459,88.263840 79.091743,89.718216 
	C77.324036,89.389687 76.127434,89.185921 75.062775,88.687271 
	C76.140182,86.958771 77.085663,85.525154 78.254105,83.966370 
	C78.873314,83.525505 79.269562,83.209801 79.665810,82.894096 
z"/>
<path fill="#B52CFF" opacity="1.000000" stroke="none" 
	d="
M74.930840,88.982155 
	C76.127434,89.185921 77.324036,89.389687 78.784584,89.847153 
	C77.912483,91.983627 76.776436,93.866402 75.339233,95.908447 
	C74.153664,95.159058 73.269257,94.250389 72.298721,92.808861 
	C73.118683,91.178055 74.024757,90.080101 74.930840,88.982155 
z"/>
<path fill="#3065FF" opacity="1.000000" stroke="none" 
	d="
M69.995728,43.006256 
	C68.787674,43.533684 67.579613,44.061111 66.161613,44.847252 
	C64.633064,43.315720 63.314468,41.525471 61.942467,39.389542 
	C63.063923,38.787682 64.238785,38.531502 66.020378,38.297100 
	C67.749985,39.881340 68.872856,41.443798 69.995728,43.006256 
z"/>
<path fill="#9C36FF" opacity="1.000000" stroke="none" 
	d="
M15.239565,85.939102 
	C14.035764,86.265465 12.831964,86.591827 11.258444,86.980087 
	C10.003914,85.261688 9.119102,83.481400 8.590878,81.350845 
	C10.247140,80.998917 11.546816,80.997261 12.990076,81.266983 
	C13.687325,82.371742 14.240988,83.205116 14.861050,84.356995 
	C15.031487,85.096695 15.135526,85.517899 15.239565,85.939102 
z"/>
<path fill="#5C54FF" opacity="1.000000" stroke="none" 
	d="
M7.100718,53.458855 
	C8.483544,53.342503 9.794790,53.656303 11.474983,54.301926 
	C11.832438,55.065193 11.820946,55.496643 11.617565,56.223701 
	C11.233832,57.682404 11.041986,58.845505 10.481585,60.005539 
	C9.131339,60.001530 8.149650,60.000584 7.167960,59.999634 
	C7.121686,57.962757 7.075412,55.925880 7.100718,53.458855 
z"/>
<path fill="#694BFF" opacity="1.000000" stroke="none" 
	d="
M7.096925,60.433083 
	C8.149650,60.000584 9.131339,60.001530 10.531536,60.403839 
	C11.017999,61.873135 11.085955,62.941063 11.153912,64.008995 
	C11.091468,64.756836 11.029024,65.504669 10.913809,66.624725 
	C9.877239,66.998436 8.893440,66.999939 7.538079,67.002869 
	C7.119640,64.958374 7.072766,62.912453 7.096925,60.433083 
z"/>
<path fill="#BBABFF" opacity="1.000000" stroke="none" 
	d="
M11.022467,74.993752 
	C11.025994,73.604538 11.029522,72.215332 11.084787,70.412552 
	C12.130884,69.999573 13.125244,70.000145 14.492061,69.998817 
	C15.316957,71.653313 15.769399,73.309715 16.580482,75.100113 
	C16.939123,75.234116 16.977194,75.543121 16.992622,75.697495 
	C16.768658,76.123184 16.529268,76.394508 15.743153,76.651764 
	C14.112692,76.432159 13.028956,76.226624 11.764580,75.875916 
	C11.376657,75.500412 11.189499,75.254745 11.022467,74.993752 
z"/>
<path fill="#913DFF" opacity="1.000000" stroke="none" 
	d="
M10.636720,74.995422 
	C11.189499,75.254745 11.376657,75.500412 11.767476,76.243866 
	C12.249507,78.169861 12.547999,79.582733 12.846492,80.995605 
	C11.546816,80.997261 10.247140,80.998917 8.557659,81.001160 
	C7.788109,79.261803 7.408363,77.521866 7.098155,75.392227 
	C8.195454,75.000717 9.223213,74.998901 10.636720,74.995422 
z"/>
<path fill="#9C36FF" opacity="1.000000" stroke="none" 
	d="
M87.544220,79.068260 
	C87.554680,78.666267 87.782082,78.479576 88.428513,78.154419 
	C88.485420,78.438492 88.123291,78.861023 87.544220,79.068260 
z"/>
<path fill="#694BFF" opacity="1.000000" stroke="none" 
	d="
M57.144394,62.997131 
	C56.183975,63.659416 55.223930,64.896530 54.263084,64.897148 
	C41.327602,64.905540 28.392006,64.741699 15.206514,63.917198 
	C15.018768,62.145302 15.080946,61.076756 15.537985,60.005199 
	C16.992519,60.014618 18.052195,60.027050 19.290304,60.431118 
	C29.948679,60.880066 40.428619,60.954823 50.908543,60.952904 
	C51.562267,60.952785 52.215885,60.351547 53.268089,60.022732 
	C54.724777,60.007809 55.782928,60.000134 56.888016,60.367424 
	C57.004765,61.493973 57.074577,62.245552 57.144394,62.997131 
z"/>
<path fill="#8DBCFF" opacity="1.000000" stroke="none" 
	d="
M57.515392,62.994732 
	C57.074577,62.245552 57.004765,61.493973 56.939987,59.957771 
	C56.909790,57.799942 56.874554,56.426739 57.136337,54.924156 
	C58.246620,54.531254 59.059887,54.267738 59.873154,54.004219 
	C59.984802,54.277126 60.104584,54.546413 60.346817,54.998932 
	C60.627979,57.491379 60.794819,59.796974 60.908276,62.534809 
	C59.865391,62.975475 58.875889,62.983902 57.515392,62.994732 
z"/>
<path fill="#9FB9FF" opacity="1.000000" stroke="none" 
	d="
M15.143124,60.008213 
	C15.080946,61.076756 15.018768,62.145302 14.901438,63.611877 
	C13.861393,64.008163 12.876501,64.006409 11.522760,64.006821 
	C11.085955,62.941063 11.017999,61.873135 10.900091,60.406902 
	C11.041986,58.845505 11.233832,57.682404 12.011772,56.244530 
	C13.382162,55.985004 14.166459,56.000259 14.970080,56.414536 
	C15.040645,57.878441 15.091885,58.943329 15.143124,60.008213 
z"/>
<path fill="#6CC2FF" opacity="1.000000" stroke="none" 
	d="
M15.697535,46.459503 
	C17.697550,44.167377 19.697565,41.875252 21.878170,39.302780 
	C31.624037,33.891972 41.071800,33.417652 50.671875,39.873283 
	C52.862137,42.139137 54.728638,44.268124 56.388577,46.757305 
	C55.372681,47.448948 54.563347,47.780396 53.564865,48.085213 
	C53.375713,48.058578 52.997631,47.991970 52.868851,47.693165 
	C51.163197,45.928570 49.586323,44.462780 47.782574,42.727829 
	C40.462357,38.191383 33.273586,37.323616 25.605364,41.942047 
	C23.184734,44.018951 21.092089,46.005508 18.810562,48.024876 
	C18.621683,48.057686 18.241785,48.109505 17.863602,48.014412 
	C16.889458,47.432716 16.293497,46.946110 15.697535,46.459503 
z"/>
<path fill="#E2A6FF" opacity="1.000000" stroke="none" 
	d="
M15.493757,86.111923 
	C15.135526,85.517899 15.031487,85.096695 15.198761,84.311325 
	C16.309753,83.627983 17.149433,83.308823 17.989113,82.989662 
	C18.416243,83.391312 18.843372,83.792961 19.472507,84.414497 
	C21.194199,86.148651 22.713879,87.662910 24.544346,89.327034 
	C32.407398,94.687920 39.969437,94.053772 47.768764,89.248840 
	C49.877472,87.182968 51.755424,85.383087 53.757744,83.284286 
	C55.479191,82.740028 57.076267,82.494705 58.625423,82.566177 
	C57.370800,84.680328 56.164093,86.477684 54.818115,88.583588 
	C52.161968,90.704308 49.645092,92.516495 46.891785,94.578438 
	C39.733353,97.258430 32.807972,97.831108 25.492382,94.753387 
	C23.316965,93.402794 21.525301,92.164909 19.424871,90.783707 
	C17.993385,89.188499 16.870668,87.736626 15.493757,86.111923 
z"/>
<path fill="#E2A6FF" opacity="1.000000" stroke="none" 
	d="
M103.319031,80.417221 
	C103.729012,80.809341 104.138992,81.201462 104.791786,81.739548 
	C106.180183,83.466385 107.325760,85.047279 108.731079,86.821098 
	C110.404198,88.915115 111.817558,90.816200 113.491653,92.898186 
	C112.258026,95.447144 111.819305,95.388428 107.520737,92.097931 
	C105.704742,89.723305 104.162994,87.532547 102.344017,85.167999 
	C101.793747,84.498451 101.520706,84.002708 101.448540,83.063095 
	C102.205956,81.885231 102.762497,81.151230 103.319031,80.417221 
z"/>
<path fill="#6CC2FF" opacity="1.000000" stroke="none" 
	d="
M113.735626,37.706024 
	C112.421532,39.795357 110.926010,41.602802 109.316208,43.707024 
	C108.052559,45.316212 106.903175,46.628624 105.307610,47.787636 
	C104.488022,46.906860 104.114624,46.179489 103.741234,45.452114 
	C104.722809,43.836029 105.704391,42.219948 106.762863,40.297806 
	C109.077911,39.135872 111.316055,38.279999 113.735626,37.706024 
z"/>
<path fill="#6CC2FF" opacity="1.000000" stroke="none" 
	d="
M70.244492,43.204239 
	C68.872856,41.443798 67.749985,39.881340 66.355087,38.153645 
	C68.194954,38.542480 70.306847,39.096558 72.708382,39.828514 
	C74.346161,41.965916 75.694313,43.925434 76.971176,46.482082 
	C76.278229,47.698128 75.656578,48.317039 75.034927,48.935951 
	C74.762527,48.739677 74.490135,48.543400 74.032722,48.173424 
	C72.729561,46.467220 71.611404,44.934719 70.244492,43.204239 
z"/>
<path fill="#9FB9FF" opacity="1.000000" stroke="none" 
	d="
M87.257454,65.999710 
	C86.220963,64.521637 85.184479,63.043560 83.943512,61.287266 
	C83.767952,60.239594 83.796883,59.470135 83.784546,58.316338 
	C85.163773,58.746151 86.843300,59.304749 87.950958,60.427528 
	C90.274376,62.782665 91.282669,61.172974 93.076340,59.157124 
	C94.884178,58.997456 96.003868,59.011772 97.123566,59.026093 
	C97.123566,59.026093 97.041306,59.515831 97.012856,59.762661 
	C95.635674,61.783768 94.286942,63.558048 92.450127,65.666443 
	C90.393845,66.000275 88.825653,65.999992 87.257454,65.999710 
z"/>
<path fill="#80BCFF" opacity="1.000000" stroke="none" 
	d="
M75.163162,49.238152 
	C75.656578,48.317039 76.278229,47.698128 77.074921,46.787834 
	C77.420921,46.574486 77.591881,46.652519 78.020767,46.846729 
	C79.647728,48.857029 81.016747,50.751148 82.643463,52.836071 
	C83.022438,54.198162 83.143723,55.369450 83.143341,56.837822 
	C81.586815,56.186562 80.151962,55.238220 78.451477,54.117104 
	C77.221031,52.476334 76.256218,51.008343 75.163162,49.238152 
z"/>
<path fill="#8DBCFF" opacity="1.000000" stroke="none" 
	d="
M97.393890,58.861813 
	C96.003868,59.011772 94.884178,58.997456 93.345047,58.970703 
	C94.184937,57.181076 95.444260,55.403877 96.781425,53.313095 
	C97.080055,52.730694 97.300835,52.461876 98.084488,52.145950 
	C99.441261,52.751663 100.235161,53.404491 101.029053,54.057320 
	C99.907440,55.604057 98.785828,57.150795 97.393890,58.861813 
z"/>
<path fill="#E2A6FF" opacity="1.000000" stroke="none" 
	d="
M75.062775,88.687271 
	C74.024757,90.080101 73.118683,91.178055 72.081192,92.553673 
	C70.023979,93.402260 68.098175,93.973175 65.942589,94.272507 
	C66.789108,92.624626 67.865417,91.248322 69.028564,89.566795 
	C70.661995,87.394211 72.208580,85.526848 73.885330,83.359482 
	C74.750175,82.322472 75.484871,81.585472 76.622696,81.000137 
	C77.360931,82.131714 77.696030,83.111626 78.031143,84.091530 
	C77.085663,85.525154 76.140182,86.958771 75.062775,88.687271 
z"/>
<path fill="#B2B0FF" opacity="1.000000" stroke="none" 
	d="
M87.096489,66.241379 
	C88.825653,65.999992 90.393845,66.000275 92.352524,65.999916 
	C93.583138,67.010986 94.423264,68.022697 95.494804,69.274536 
	C96.354286,70.494453 96.982353,71.474243 97.415016,72.783951 
	C96.475861,73.746681 95.732101,74.379486 94.988350,75.012291 
	C93.416191,73.183708 91.844025,71.355125 89.911362,69.107246 
	C88.311409,71.121925 86.923721,72.869316 85.123955,74.552048 
	C83.874260,73.998016 83.036659,73.508636 82.199051,73.019257 
	C83.160088,71.588486 84.121117,70.157707 85.210510,68.422844 
	C85.871078,67.573517 86.403305,67.028282 87.096489,66.241379 
z"/>
<path fill="#C8ACFF" opacity="1.000000" stroke="none" 
	d="
M81.991753,73.217163 
	C83.036659,73.508636 83.874260,73.998016 84.863403,74.752762 
	C84.739639,75.506302 84.464333,75.994476 84.097656,76.749344 
	C82.647499,78.765297 81.288719,80.514542 79.797867,82.578949 
	C79.269562,83.209801 78.873314,83.525505 78.254105,83.966370 
	C77.696030,83.111626 77.360931,82.131714 76.855186,80.786896 
	C77.673264,78.699951 78.661980,76.977921 79.816727,74.968582 
	C80.583321,74.259209 81.183884,73.837135 81.991753,73.217163 
z"/>
<path fill="#C8ACFF" opacity="1.000000" stroke="none" 
	d="
M95.106506,75.283386 
	C95.732101,74.379486 96.475861,73.746681 97.516907,73.065338 
	C98.338936,73.594345 98.863670,74.171898 99.639999,74.895630 
	C100.948227,76.650635 102.004875,78.259445 103.190277,80.142746 
	C102.762497,81.151230 102.205956,81.885231 101.356323,82.794647 
	C99.788902,81.484520 98.514572,79.998985 97.019073,78.263664 
	C96.273483,77.194084 95.749069,76.374275 95.106506,75.283386 
z"/>
<path fill="#80BCFF" opacity="1.000000" stroke="none" 
	d="
M53.754013,48.111843 
	C54.563347,47.780396 55.372681,47.448948 56.502598,47.059677 
	C57.061802,47.259724 57.300419,47.517597 57.757462,47.922806 
	C58.601765,49.815426 59.227646,51.560722 59.863342,53.655121 
	C59.059887,54.267738 58.246620,54.531254 56.948509,54.899487 
	C56.463661,55.004200 56.086456,54.953209 56.059280,54.587620 
	C55.272743,52.185303 54.513378,50.148571 53.754013,48.111843 
z"/>
<path fill="#80BCFF" opacity="1.000000" stroke="none" 
	d="
M15.431320,46.592987 
	C16.293497,46.946110 16.889458,47.432716 17.758892,48.331245 
	C17.429224,50.164940 16.826084,51.586700 16.125885,53.320984 
	C15.669470,54.427505 15.310113,55.221508 14.950756,56.015518 
	C14.166459,56.000259 13.382162,55.985004 12.203659,55.948921 
	C11.820946,55.496643 11.832438,55.065193 11.814599,54.311035 
	C12.521012,51.992271 13.256758,49.996220 14.065203,47.668270 
	C14.480303,47.133076 14.822704,46.929775 15.431320,46.592987 
z"/>
<path fill="#80BCFF" opacity="1.000000" stroke="none" 
	d="
M101.288940,53.891167 
	C100.235161,53.404491 99.441261,52.751663 98.330185,52.052036 
	C99.042519,50.588562 100.072029,49.171886 101.230965,47.450043 
	C101.979523,46.670551 102.598648,46.196228 103.479507,45.587013 
	C104.114624,46.179489 104.488022,46.906860 105.057999,47.995850 
	C104.902451,49.048279 104.550323,49.739094 104.087585,50.703133 
	C103.167595,51.892574 102.358215,52.808792 101.288940,53.891167 
z"/>
<path fill="#C8ACFF" opacity="1.000000" stroke="none" 
	d="
M17.889915,82.649628 
	C17.149433,83.308823 16.309753,83.627983 15.132363,83.992828 
	C14.240988,83.205116 13.687325,82.371742 12.990076,81.266983 
	C12.547999,79.582733 12.249507,78.169861 11.948118,76.389038 
	C13.028956,76.226624 14.112692,76.432159 15.497683,76.769897 
	C16.462864,78.704597 17.126791,80.507095 17.889915,82.649628 
z"/>
<path fill="#000000" opacity="1.000000" stroke="none" 
	d="
M52.869553,60.029984 
	C52.215885,60.351547 51.562267,60.952785 50.908543,60.952904 
	C40.428619,60.954823 29.948679,60.880066 19.617752,60.239311 
	C19.858843,58.134949 19.950922,56.614025 20.355076,54.922249 
	C21.461582,52.868752 22.256016,50.986107 23.354294,48.970963 
	C25.121304,47.594646 26.584469,46.350826 28.463808,45.044392 
	C33.884235,45.003662 38.888489,45.025547 44.031147,45.356987 
	C45.743210,47.125660 47.316872,48.584782 49.031502,50.354839 
	C50.075581,52.122459 50.978691,53.579144 51.933205,55.420551 
	C52.279587,57.213512 52.574574,58.621746 52.869553,60.029984 
z"/>
<path fill="#5C54FF" opacity="1.000000" stroke="none" 
	d="
M20.043003,55.093102 
	C19.950922,56.614025 19.858843,58.134949 19.439316,59.847679 
	C18.052195,60.027050 16.992519,60.014618 15.537985,60.005199 
	C15.091885,58.943329 15.040645,57.878441 14.970081,56.414536 
	C15.310113,55.221508 15.669470,54.427505 16.437292,53.375729 
	C17.911505,53.776337 18.977253,54.434719 20.043003,55.093102 
z"/>
<path fill="#5C54FF" opacity="1.000000" stroke="none" 
	d="
M53.268093,60.022736 
	C52.574574,58.621746 52.279587,57.213512 52.353050,55.410744 
	C53.843151,54.995209 54.964806,54.974209 56.086456,54.953209 
	C56.086456,54.953209 56.463661,55.004200 56.651489,55.028870 
	C56.874554,56.426739 56.909790,57.799942 56.893051,59.582802 
	C55.782928,60.000134 54.724777,60.007809 53.268093,60.022736 
z"/>
<path fill="#3663FF" opacity="1.000000" stroke="none" 
	d="
M43.892742,45.047432 
	C38.888489,45.025547 33.884235,45.003662 28.264359,44.781174 
	C27.076937,43.670952 26.505142,42.761330 25.933348,41.851704 
	C33.273586,37.323616 40.462357,38.191383 47.485195,42.866924 
	C46.240704,43.865932 45.066723,44.456680 43.892742,45.047432 
z"/>
<path fill="#405DFF" opacity="1.000000" stroke="none" 
	d="
M44.031147,45.356983 
	C45.066723,44.456680 46.240704,43.865932 47.712067,43.136089 
	C49.586323,44.462780 51.163197,45.928570 52.638680,47.926659 
	C51.321701,48.987274 50.106117,49.515591 48.890533,50.043903 
	C47.316872,48.584782 45.743210,47.125660 44.031147,45.356983 
z"/>
<path fill="#405DFF" opacity="1.000000" stroke="none" 
	d="
M25.605364,41.942047 
	C26.505142,42.761330 27.076937,43.670952 27.848183,44.843796 
	C26.584469,46.350826 25.121304,47.594646 23.096245,48.718460 
	C21.356049,48.396328 20.177746,48.194199 18.999443,47.992065 
	C21.092089,46.005508 23.184734,44.018951 25.605364,41.942047 
z"/>
<path fill="#4C59FF" opacity="1.000000" stroke="none" 
	d="
M49.031502,50.354839 
	C50.106117,49.515591 51.321701,48.987274 52.767456,48.225464 
	C52.997631,47.991970 53.375713,48.058578 53.564865,48.085213 
	C54.513378,50.148571 55.272743,52.185303 56.059280,54.587620 
	C54.964806,54.974209 53.843151,54.995209 52.301651,55.026016 
	C50.978691,53.579144 50.075581,52.122459 49.031502,50.354839 
z"/>
<path fill="#4C59FF" opacity="1.000000" stroke="none" 
	d="
M18.810564,48.024879 
	C20.177746,48.194199 21.356049,48.396328 22.792400,48.850960 
	C22.256016,50.986107 21.461582,52.868752 20.355076,54.922249 
	C18.977253,54.434719 17.911505,53.776337 16.534349,53.063210 
	C16.826084,51.586700 17.429224,50.164940 18.137074,48.426338 
	C18.241785,48.109505 18.621683,48.057686 18.810564,48.024879 
z"/>
</svg>