<?xml version="1.0" encoding="UTF-8"?>
<svg version="1.1" xmlns="http://www.w3.org/2000/svg" width="1176" height="1056">
<path d="M0 0 C388.08 0 776.16 0 1176 0 C1176 348.48 1176 696.96 1176 1056 C787.92 1056 399.84 1056 0 1056 C0 707.52 0 359.04 0 0 Z " fill="#000000" transform="translate(0,0)"/>
<path d="M0 0 C13.86 0 27.72 0 42 0 C44.31 2.97 46.62 5.94 49 9 C50.40824796 10.73602981 51.8236395 12.46632089 53.25 14.1875 C56.64084213 18.31149719 59.96357345 22.48049586 63.25 26.6875 C70.95267163 36.53905591 78.88657716 46.2029186 86.8125 55.875 C92.22246535 62.48281611 97.55502465 69.14866893 102.81738281 75.87451172 C110.93626654 86.24735497 119.25878005 96.45107896 127.625 106.625 C130.88738162 110.60510558 134.08042783 114.63360591 137.25 118.6875 C143.39461315 126.54447544 149.69291641 134.27326805 156 142 C162.2228225 149.6235047 168.43626841 157.24896918 174.5 165 C180.57873478 172.73657153 186.79561087 180.36382877 193 188 C193.33 125.96 193.66 63.92 194 0 C248.45 0 302.9 0 359 0 C359 10.23 359 20.46 359 31 C315.44 31 271.88 31 227 31 C227 47.17 227 63.34 227 80 C261.98 80 296.96 80 333 80 C333 90.23 333 100.46 333 111 C298.02 111 263.04 111 227 111 C227 127.5 227 144 227 161 C270.56 161 314.12 161 359 161 C359 171.23 359 181.46 359 192 C332.46161477 192.30116365 305.92364226 192.53304304 279.38389111 192.67355824 C267.0604294 192.74054175 254.73805007 192.83183165 242.4152832 192.98071289 C231.67242443 193.11044392 220.93034959 193.19419304 210.18672925 193.22315043 C204.49956365 193.24007399 198.81464031 193.27972869 193.12819481 193.37449074 C187.77012597 193.46305309 182.41521167 193.48989061 177.05648041 193.47039986 C175.09521873 193.47396254 173.13384646 193.49964392 171.17321968 193.54967117 C155.61555392 193.92700854 155.61555392 193.92700854 150.4304142 189.14536095 C147.54853745 186.00155926 145.27659638 182.59898953 143 179 C141.96429607 177.66989397 140.91578006 176.34921627 139.8359375 175.0546875 C139.01332015 173.99657953 138.19292203 172.93674164 137.375 171.875 C133.461632 166.84869407 129.48373999 161.88536059 125.4375 156.96484375 C117.91595501 147.81604143 110.45398396 138.6248003 103.16455078 129.28979492 C99.12127491 124.12436033 94.98171171 119.0402332 90.83374023 113.95874023 C87.36106518 109.69689091 83.94173694 105.39868899 80.5625 101.0625 C76.46062077 95.8024431 72.25421962 90.63749637 68 85.5 C63.29302772 79.8157488 58.66629604 74.08208685 54.13085938 68.26025391 C49.93738027 62.88832665 45.63997241 57.60325851 41.32592773 52.32788086 C40.80587158 51.69116455 40.28581543 51.05444824 39.75 50.3984375 C39.06164062 49.55804932 39.06164062 49.55804932 38.359375 48.70068359 C36.86578859 46.83209112 35.4352971 44.91372946 34 43 C33.67 91.84 33.34 140.68 33 191 C22.11 191 11.22 191 0 191 C0 127.97 0 64.94 0 0 Z " fill="#FCFCFC" transform="translate(128,439)"/>
<path d="M0 0 C5.88502921 -0.39942768 11.76200305 -0.68744834 17.6574707 -0.87890625 C19.6556138 -0.95876114 21.65283977 -1.06751407 23.64770508 -1.20703125 C39.71209929 -2.30132507 39.71209929 -2.30132507 45.14910889 1.50424194 C48.98552681 5.19727445 51.89263368 9.40961517 54.67687988 13.92622375 C56.79432187 17.24497073 59.27542568 20.25682317 61.75 23.3125 C62.65556476 24.46594395 63.5594692 25.62069541 64.4609375 26.77734375 C67.43737772 30.56889476 70.48829418 34.29726241 73.55078125 38.01953125 C78.22345614 43.7057369 82.85682706 49.42387685 87.49023438 55.14208984 C88.857596 56.82475833 90.23191435 58.50137975 91.609375 60.17578125 C92.33640625 61.06652344 93.0634375 61.95726562 93.8125 62.875 C94.75029297 64.01582031 94.75029297 64.01582031 95.70703125 65.1796875 C97 67 97 67 97 69 C97.66 69 98.32 69 99 69 C99.22816406 68.47277344 99.45632813 67.94554687 99.69140625 67.40234375 C101.44113411 64.19015679 103.66558739 61.41350444 105.9375 58.5625 C106.42404053 57.94705322 106.91058105 57.33160645 107.41186523 56.69750977 C111.15975337 51.98506943 115.03371101 47.39042414 118.94970703 42.81762695 C122.44992772 38.70799838 125.75206064 34.47150923 129.01098633 30.16699219 C133.18926801 24.68130474 137.58515165 19.38041954 142.00317383 14.08691406 C142.56415771 13.41241211 143.1251416 12.73791016 143.703125 12.04296875 C144.19458008 11.45539795 144.68603516 10.86782715 145.19238281 10.26245117 C146.99640479 8.11138015 146.99640479 8.11138015 148.19009399 5.993927 C151.72811794 0.40564165 151.72811794 0.40564165 155.19262695 -0.69929504 C157.82765022 -0.92529048 160.35023803 -0.90117773 162.9921875 -0.78125 C163.93812775 -0.76993042 164.88406799 -0.75861084 165.8586731 -0.74694824 C168.86621695 -0.70232805 171.86890949 -0.60199923 174.875 -0.5 C176.91920174 -0.45985413 178.96347858 -0.42335529 181.0078125 -0.390625 C186.00706422 -0.30264007 191.00271112 -0.16469706 196 0 C194.61333975 2.85681057 193.17501776 5.18244185 191.12890625 7.6171875 C190.56034912 8.29918213 189.99179199 8.98117676 189.40600586 9.68383789 C188.79764893 10.40692139 188.18929199 11.13000488 187.5625 11.875 C183.1139311 17.21612885 178.7069696 22.57693637 174.4375 28.0625 C167.86436588 36.49275926 161.09348062 44.7600384 154.33398438 53.04101562 C145.09790927 64.36081427 145.09790927 64.36081427 136.05151367 75.83227539 C133.69052606 78.87568486 131.28628685 81.86560561 128.80078125 84.80859375 C128.28016113 85.43685059 127.75954102 86.06510742 127.22314453 86.71240234 C126.22169252 87.91892116 125.20624193 89.11399658 124.17529297 90.29541016 C122.62943561 92.09537602 122.62943561 92.09537602 121 95 C121.70916556 99.50528706 124.98569952 102.61334054 127.9375 105.9375 C131.85393294 110.45284096 135.65042243 115.02594026 139.3125 119.75 C143.4523508 125.07630343 147.69597967 130.30553295 152 135.5 C156.80695301 141.30361202 161.52697026 147.16238594 166.16137695 153.10449219 C169.6703268 157.59897036 173.26294534 162.01927995 176.88671875 166.421875 C179.60251741 169.73504896 182.27184342 173.08393204 184.9375 176.4375 C186.44112922 178.3056454 187.96477587 180.15773104 189.5 182 C190.325 182.99 191.15 183.98 192 185 C192.763125 185.9075 193.52625 186.815 194.3125 187.75 C196 190 196 190 196 192 C190.11497079 192.39942768 184.23799695 192.68744834 178.3425293 192.87890625 C176.3443862 192.95876114 174.34716023 193.06751407 172.35229492 193.20703125 C156.28790071 194.30132507 156.28790071 194.30132507 150.85089111 190.49575806 C147.01447319 186.80272555 144.10736632 182.59038483 141.32312012 178.07377625 C139.20567813 174.75502927 136.72457432 171.74317683 134.25 168.6875 C133.34443524 167.53405605 132.4405308 166.37930459 131.5390625 165.22265625 C128.5586104 161.42599469 125.50316194 157.69290764 122.4375 153.96484375 C114.91826668 144.81885322 107.4592526 135.62998922 100.17114258 126.29858398 C95.5215122 120.35949657 90.75388143 114.51798119 85.98828125 108.671875 C83.01583171 105.02458406 80.07700432 101.35135699 77.14453125 97.671875 C74.90129084 94.8770181 72.63935364 92.09806375 70.375 89.3203125 C65.24272548 83.023772 60.16414533 76.69257157 55.16479492 70.29003906 C51.12135016 65.12459131 46.98178473 60.04032265 42.83374023 54.95874023 C39.36106518 50.69689091 35.94173694 46.39868899 32.5625 42.0625 C28.46061141 36.80243111 24.25386211 31.63780395 20 26.5 C15.53469798 21.1005267 11.0985542 15.68164106 6.75 10.1875 C6.29625 9.61902344 5.8425 9.05054688 5.375 8.46484375 C3.23528102 5.74396653 1.48628905 3.11844843 0 0 Z " fill="#FBFBFB" transform="translate(527,439)"/>
<path d="M0 0 C54.45 0 108.9 0 165 0 C165 10.23 165 20.46 165 31 C143.22 31 121.44 31 99 31 C99 83.8 99 136.6 99 191 C88.44 191 77.88 191 67 191 C67 138.2 67 85.4 67 31 C44.89 31 22.78 31 0 31 C0 20.77 0 10.54 0 0 Z " fill="#FDFDFD" transform="translate(759,439)"/>
<path d="M0 0 C3.13470425 1.35940137 4.93149568 2.78834276 7.05859375 5.44921875 C7.60966797 6.13306641 8.16074219 6.81691406 8.72851562 7.52148438 C9.57446289 8.59366211 9.57446289 8.59366211 10.4375 9.6875 C10.99759766 10.38294922 11.55769531 11.07839844 12.13476562 11.79492188 C13.24253723 13.17931323 14.3396097 14.57234037 15.42529297 15.97412109 C16.45815452 17.30290949 17.51404577 18.61417842 18.59423828 19.90478516 C20.03515625 21.70703125 20.03515625 21.70703125 22 25 C21.33468808 29.50628794 18.01189871 32.61598089 15.0625 35.9375 C11.1277875 40.47480859 7.30904164 45.0692119 3.625 49.8125 C-0.96883171 55.718498 -5.66067372 61.5375961 -10.40966797 67.31958008 C-11.17561279 68.255802 -11.17561279 68.255802 -11.95703125 69.2109375 C-12.43811844 69.7887648 -12.91920563 70.3665921 -13.41487122 70.96192932 C-15.02808151 72.95246428 -15.02808151 72.95246428 -16.25837708 75.09255981 C-19.68126559 80.57900963 -19.68126559 80.57900963 -23.19361877 81.70028687 C-25.82811733 81.92525617 -28.35084076 81.90115037 -30.9921875 81.78125 C-31.93812775 81.76993042 -32.88406799 81.75861084 -33.8586731 81.74694824 C-36.86621695 81.70232805 -39.86890949 81.60199923 -42.875 81.5 C-44.91920174 81.45985413 -46.96347858 81.42335529 -49.0078125 81.390625 C-54.00706422 81.30264007 -59.00271112 81.16469706 -64 81 C-62.37856744 77.61463052 -60.48449855 75.00687169 -58.0625 72.125 C-54.57445473 67.92601557 -51.16493329 63.68273278 -47.8125 59.375 C-43.62690246 54.01106333 -39.33972715 48.73985801 -35 43.5 C-30.29230768 37.81498719 -25.66577658 32.07988288 -21.12866211 26.25805664 C-15.97331176 19.6558239 -10.66693396 13.17701466 -5.37158203 6.68701172 C-3.56787415 4.46849597 -1.78142082 2.23643433 0 0 Z " fill="#FBFBFB" transform="translate(591,550)"/>
<path d="M0 0 C0.83893799 0.00829834 1.67787598 0.01659668 2.54223633 0.02514648 C11.9716238 0.28342291 17.99341457 3.15062172 24.8984375 9.57421875 C28.74546301 13.88180365 29.5625 17.61541069 29.5625 23.4375 C24.6125 23.4375 19.6625 23.4375 14.5625 23.4375 C14.19125 22.344375 13.82 21.25125 13.4375 20.125 C12.2231346 17.38574654 11.5523722 16.4294497 9.125 14.5 C3.53311033 12.83224343 -2.98390594 11.99362452 -8.51171875 14.3046875 C-10.32872997 15.51016225 -11.89572835 16.89572835 -13.4375 18.4375 C-14.03491593 22.52216811 -14.03491593 22.52216811 -13.4375 26.4375 C-8.80309531 31.43817216 -4.28469528 32.55569437 2.25 33.875 C13.01892768 36.33136252 22.05249656 39.10058745 28.5390625 48.60546875 C31.03961933 53.08165637 31.12881193 57.45080884 30.5625 62.4375 C28.55427887 69.18250356 25.38950776 74.2145516 19.1953125 77.8125 C9.0179053 83.12770376 -2.17690574 84.14290398 -13.3828125 81.1875 C-21.12361681 78.36195926 -26.93055374 73.10953621 -30.8125 65.875 C-31.4375 63.4375 -31.4375 63.4375 -31.4375 57.4375 C-26.8175 57.4375 -22.1975 57.4375 -17.4375 57.4375 C-14.4375 63.4375 -14.4375 63.4375 -14.4375 65.4375 C-13.261875 65.9015625 -13.261875 65.9015625 -12.0625 66.375 C-9.4375 67.4375 -9.4375 67.4375 -7.4375 68.4375 C-5.17005726 68.58693856 -2.8971825 68.65894902 -0.625 68.6875 C0.59832031 68.71328125 1.82164063 68.7390625 3.08203125 68.765625 C6.78523105 68.41650179 8.53733172 67.5013491 11.5625 65.4375 C12.2225 65.4375 12.8825 65.4375 13.5625 65.4375 C14.76691893 61.67369085 15.11289195 58.35904262 14.5625 54.4375 C9.32148634 49.82708959 4.54950839 48.37188135 -2.1875 47 C-11.19969705 44.95267109 -19.36834237 42.60590538 -26 35.8125 C-29.74272943 29.62886008 -30.33107438 24.6791757 -29.4375 17.4375 C-27.2709503 11.61489767 -22.68873048 6.69191889 -17.4375 3.4375 C-11.46332708 0.74527615 -6.52169069 -0.08304971 0 0 Z " fill="#F7F7F7" transform="translate(1046.4375,547.5625)"/>
<path d="M0 0 C4.95 0 9.9 0 15 0 C15.09077338 7.78067502 15.16398612 15.56105478 15.20724869 23.3421154 C15.22802442 26.95614345 15.25615513 30.56978695 15.30175781 34.18359375 C15.34557814 37.67847537 15.36921218 41.17298976 15.37950897 44.66812515 C15.39037481 46.63441341 15.42154181 48.60055623 15.45318604 50.56661987 C15.45519228 58.67139485 14.95352203 66.61963667 9.27886963 72.9069519 C3.08881656 78.63544088 -2.95801888 80.58705913 -11.25 80.5625 C-12.09248291 80.56008301 -12.93496582 80.55766602 -13.80297852 80.55517578 C-20.77494125 80.34922727 -25.79329565 78.84916242 -31 74 C-35.5748224 69.09043449 -35.65077512 64.46066034 -36 58 C-31.05 58 -26.1 58 -21 58 C-20.34 60.31 -19.68 62.62 -19 65 C-16.32178856 67.30623763 -14.54464205 67.9188831 -11.0625 68.4375 C-7.1875574 67.88393677 -5.04574652 66.40826469 -2 64 C-0.64433895 61.2886779 -0.83768915 59.11692002 -0.79467773 56.08154297 C-0.77473251 54.84040741 -0.75478729 53.59927185 -0.73423767 52.32052612 C-0.7172534 50.9610812 -0.70037459 49.60163495 -0.68359375 48.2421875 C-0.66302419 46.85498433 -0.64202772 45.46778743 -0.62062073 44.08059692 C-0.56540019 40.42772495 -0.51599089 36.77479641 -0.46777344 33.12182617 C-0.41755825 29.39496826 -0.36187229 25.66819259 -0.30664062 21.94140625 C-0.19905926 14.62767183 -0.0981198 7.31386859 0 0 Z " fill="#F7F7F7" transform="translate(987,549)"/>
<path d="M0 0 C4.25331827 0.86802414 6.18199992 2.40158324 9.0625 5.625 C9.75 9.125 9.75 9.125 9.0625 12.625 C7.06350675 15.56102134 5.61729057 17.24630844 2.08984375 18.10546875 C-1.61383097 18.36161074 -3.57703096 17.92238696 -6.4375 15.5625 C-8.33225662 11.85193494 -8.59904724 9.74129392 -7.9375 5.625 C-5.51605492 2.27770827 -4.06319154 0.86450884 0 0 Z " fill="#F4F4F4" transform="translate(930.9375,611.375)"/>
</svg>
